<?xml version="1.0" encoding="UTF-8" standalone="no"?>
<!-- Created with Inkscape (http://www.inkscape.org/) -->

<svg
   xmlns:osb="http://www.openswatchbook.org/uri/2009/osb"
   xmlns:dc="http://purl.org/dc/elements/1.1/"
   xmlns:cc="http://creativecommons.org/ns#"
   xmlns:rdf="http://www.w3.org/1999/02/22-rdf-syntax-ns#"
   xmlns:svg="http://www.w3.org/2000/svg"
   xmlns="http://www.w3.org/2000/svg"
   xmlns:sodipodi="http://sodipodi.sourceforge.net/DTD/sodipodi-0.dtd"
   xmlns:inkscape="http://www.inkscape.org/namespaces/inkscape"
   width="40000"
   height="40000"
   viewBox="0 0 40000 40000.001"
   id="svg4136"
   version="1.1"
   inkscape:version="0.91 r13725"
   inkscape:export-filename="/Users/Olga/path4688.png"
   inkscape:export-xdpi="90"
   inkscape:export-ydpi="90"
   sodipodi:docname="shapes.svg">
  <defs
     id="defs4138">
    <linearGradient
       id="linearGradient4710"
       osb:paint="solid">
      <stop
         style="stop-color:#00ff12;stop-opacity:1;"
         offset="0"
         id="stop4712" />
    </linearGradient>
  </defs>
  <sodipodi:namedview
     id="base"
     pagecolor="#ffffff"
     bordercolor="#666666"
     borderopacity="1.0"
     inkscape:pageopacity="0.0"
     inkscape:pageshadow="2"
     inkscape:zoom="0.32"
     inkscape:cx="23795.777"
     inkscape:cy="39904.816"
     inkscape:document-units="px"
     inkscape:current-layer="layer1"
     showgrid="true"
     units="px"
     inkscape:window-width="1280"
     inkscape:window-height="751"
     inkscape:window-x="0"
     inkscape:window-y="0"
     inkscape:window-maximized="1">
    <inkscape:grid
       type="xygrid"
       id="grid6181"
       empspacing="400"
       snapvisiblegridlinesonly="false" />
  </sodipodi:namedview>
  <metadata
     id="metadata4141">
    <rdf:RDF>
      <cc:Work
         rdf:about="">
        <dc:format>image/svg+xml</dc:format>
        <dc:type
           rdf:resource="http://purl.org/dc/dcmitype/StillImage" />
        <dc:title></dc:title>
      </cc:Work>
    </rdf:RDF>
  </metadata>
  <g
     inkscape:label="Layer 1"
     inkscape:groupmode="layer"
     id="layer1"
     transform="translate(0,38947.638)">
    <path
       style="fill:none;fill-rule:evenodd;stroke:#000000;stroke-width:12.5;stroke-linecap:butt;stroke-linejoin:miter;stroke-opacity:1;stroke-miterlimit:4;stroke-dasharray:none"
       d="m 59,-38872.638 c 34.5,0 69,0 103.5,0 18.20763,0 53.31568,7.86 71.875,12.5 19.10926,4.777 45.64431,0 65.625,0 1.90701,0 11.28238,1.218 12.5,0 0.73657,-0.737 -1.04167,-3.125 0,-3.125 0.48434,0 -0.55549,22.222 0,25 0.90488,4.524 5.34512,11.1 6.25,15.625 1.0896,5.448 -1.79197,13.374 0,18.75 5.65085,16.952 6.25,38.042 6.25,56.25 0,15.767 4.88684,41.589 0,56.25 -6.25812,18.774 -12.5,38.753 -12.5,59.375 0,3.301 -2.04948,25 -3.125,25 -1.04167,0 1.04167,-3.125 0,-3.125 -1.47314,0 -1.72746,2.659 -3.125,3.125 -17.8589,5.953 -41.04226,-4.583 -59.375,0 -20.40186,5.1 11.8068,1.678 -15.625,6.25 -17.65001,2.942 -38.34365,0 -56.25,0 -17.57498,0 -68.01566,6.984 -78.125,-3.125 -3.179614,-3.18 -17.380061,1.498 -21.875,0 -9.754126,-3.251 1.041667,-2.083 -3.125,-6.25 -2.565119,-2.565 -20.873674,3.004 -21.875,0 -4.690876,-14.073 0,-69.609 0,-87.5 0,-18.956 -4.685725,-152.738 0,-162.5 2.221772,-4.629 9,-7.366 9,-12.5 0,-1.545 -9,-7.47 -9,-13"
       id="path6199"
       inkscape:connector-curvature="0" />
    <path
       style="fill:none;fill-rule:evenodd;stroke:#000000;stroke-width:12.5;stroke-linecap:butt;stroke-linejoin:miter;stroke-opacity:1;stroke-miterlimit:4;stroke-dasharray:none"
       d="m 484,-38863.638 c 66.32568,5.439 134.22384,-6.24 200.375,0.375 17.05202,1.705 22.41764,9.483 37.5,12.5 4.51203,0.902 11.26608,-1.453 15.625,0 6.5779,2.193 3.125,32.519 3.125,37.5 0,16.837 -3.51446,30.462 -6.25,46.875 -5.37719,32.263 2.09778,66.281 -9.375,96.875 -7.40566,19.748 -6.25,41.452 -6.25,62.5 0,4.167 2.94628,9.554 0,12.5 -4.12402,4.124 -91.64418,-2.482 -100,-3.125 -6.23159,-0.479 -12.68661,1.516 -18.75,0 -6.77908,-1.695 -12.12087,-7.165 -18.75,-9.375 -15.03333,-5.011 -34.50685,-8.627 -50,-12.5 -9.81477,-2.454 -21.31486,1.987 -31.25,0 -0.96362,-0.193 -21.4259,-5.352 -21.875,-6.25 -1.66586,-3.332 3.125,-78.443 3.125,-84.375 0,-36.716 -7.01243,-118.888 2.75,-153.5 z"
       id="path6201"
       inkscape:connector-curvature="0" />
    <path
       style="fill:none;fill-rule:evenodd;stroke:#000000;stroke-width:12.5;stroke-linecap:butt;stroke-linejoin:miter;stroke-opacity:1;stroke-miterlimit:4;stroke-dasharray:none"
       d="m 891,-38850.638 c 50.94641,5.997 115.7389,-8.377 165.25,-0.125 11.32,1.887 20.5751,9.831 31.25,12.5 11.841,2.96 38.3212,-1.483 43.75,9.375 8.8571,17.714 -10.03,133.87 -15.625,156.25 -3.5005,14.002 -1.6623,56.449 -6.25,65.625 -0.5436,1.087 -5.1382,5.138 -6.25,6.25 -1.4731,1.473 0.9317,4.387 0,6.25 -1.0417,2.083 -5.2083,1.042 -6.25,3.125 -2.752,5.504 0.2416,6.008 -3.125,9.375 -6.1332,6.133 -79.7585,6.25 -90.625,6.25 -21.11828,0 -50.86241,5.253 -71.875,0 -5.65606,1.883 -5.81195,-5.062 -9.375,-6.25 -9.45971,-3.153 -18.82581,-4.726 -28.125,-9.375 -6.61104,-3.306 -17.42154,2.657 -21.875,-6.25 -10.09228,-20.185 12.67739,-76.419 15.625,-100 6.28143,-50.252 -7.72186,-103.303 3.5,-153 z"
       id="path6203"
       inkscape:connector-curvature="0" />
    <path
       style="fill:none;fill-rule:evenodd;stroke:#000000;stroke-width:12.5;stroke-linecap:butt;stroke-linejoin:miter;stroke-opacity:1;stroke-miterlimit:4;stroke-dasharray:none"
       d="m 1294,-38616.638 c -0.4077,-31.165 -0.25,-62.334 -0.25,-93.5 0,-36.331 -7.4876,-118.162 3.125,-150 0.86,-2.58 -2.324,-26.963 0,-28.125 3.954,-1.977 12.8785,5.076 18.75,6.25 24.7288,4.946 56.1831,0 81.25,0 29.1667,0 58.3333,0 87.5,0 11.4583,0 22.9167,0 34.375,0 5.2083,0 10.4167,0 15.625,0 1.0417,0 3.125,-1.042 3.125,0 0,1.042 -3.125,-1.042 -3.125,0 0,1.473 2.4662,1.807 3.125,3.125 5.6071,11.214 0,68.6 0,84.375 0,47.429 8.7252,108.199 -6.25,153.125 -4.666,13.998 3.7557,33.113 -3.125,46.875 -2.2489,4.498 -30.9698,3.976 -46.875,0 -13.9138,-3.479 -29.5117,-7.595 -43.75,-9.375 -22.6692,-2.834 -53.4313,7.189 -75,0 -10.1599,-3.387 -17.7094,-9.028 -28.125,-12.5 -5.3926,-1.798 -13.7281,2.511 -18.75,0 -3.6263,-1.813 -3.6189,-7.145 -9.375,-6.25 -4.4929,0.698 -8.1667,4 -12.25,6 z"
       id="path6205"
       inkscape:connector-curvature="0" />
    <path
       style="fill:none;fill-rule:evenodd;stroke:#000000;stroke-width:12.5;stroke-linecap:butt;stroke-linejoin:miter;stroke-opacity:1;stroke-miterlimit:4;stroke-dasharray:none"
       d="m 1694,-38603.638 c -0.4832,-50.08 -0.25,-100.167 -0.25,-150.25 0,-27.083 0,-54.167 0,-81.25 0,-0.42 -1.7119,-30.394 0,-31.25 10.6438,-5.322 64.3859,0 78.125,0 33.5985,0 100.7021,-7.058 131.25,3.125 7.0161,2.339 8.4934,5.809 15.625,9.375 8.6533,4.327 22.9527,1.078 28.125,6.25 4.6049,4.605 -8.6618,93.854 -9.375,103.125 -3.0324,39.421 -3.125,79.089 -3.125,118.75 0,12.031 5.4684,39.063 0,50 -3.3901,6.78 -26.051,3.125 -31.25,3.125 -16.4145,0 -31.1013,0.03 -46.875,-3.125 -13.0352,-2.607 -30.5053,0 -43.75,0 -42.2806,0 -85.0956,-2.992 -118.5,-27.875 z"
       id="path6207"
       inkscape:connector-curvature="0" />
    <path
       style="fill:none;fill-rule:evenodd;stroke:#000000;stroke-width:1px;stroke-linecap:butt;stroke-linejoin:miter;stroke-opacity:1"
       d="m 2053,-38613.638 c 0.241,-44.665 0.125,-89.334 0.125,-134 0,-12.552 -2.0852,-28.114 0,-40.625 2.0357,-12.214 3.125,-22 3.125,-34.375 0,-3.118 -2.4916,-36.254 0,-37.5 7.44,-3.72 113.4908,0 131.25,0 14.6251,0 139.3615,-3.757 153.125,3.125 7.14,3.57 3.125,33.521 3.125,40.625 0,46.875 0,93.75 0,140.625 0,12.466 5.7007,44.849 0,56.25 -6.1225,12.245 -17.6325,17.336 -31.25,21.875 -20.635,6.878 -15.1242,9.124 -28.125,15.625 -8.4097,4.205 -35.8692,0 -43.75,0 -16.3403,0 -34.1635,2.154 -50,-3.125 -4.4194,-1.473 -7.9525,-5.24 -12.5,-6.25 -12.4146,-2.759 -25.3059,-2.766 -37.5,-6.25 -9.3944,-2.684 -18.4975,-10.093 -28.125,-12.5 -12.4078,-3.102 -45.323,-3.079 -59.5,-3.5 z"
       id="path6209"
       inkscape:connector-curvature="0" />
    <path
       style="fill:none;fill-rule:evenodd;stroke:#000000;stroke-width:1px;stroke-linecap:butt;stroke-linejoin:miter;stroke-opacity:1"
       d="m 2494,-38597.638 c -0.5179,-73.953 -0.25,-147.918 -0.25,-221.875 0,-8.425 -9.4927,-21.64 -6.25,-28.125 6.5028,-13.006 -0.2157,3.341 6.25,-3.125 3.4003,-3.4 -5.5453,-4.083 3.125,-6.25 15.1611,-3.79 94.2992,-3.015 109.375,0 32.8566,6.571 0.043,5.865 28.125,9.375 19.3883,2.423 103.647,-8.853 118.75,6.25 0,0 0.071,52.843 0,53.125 -1.1298,4.519 -5.2394,7.952 -6.25,12.5 -3.7037,16.667 2.2222,11.667 0,25 -4.5932,27.559 1.4646,56.837 -3.125,84.375 -1.9161,11.496 1.0664,47.867 -3.125,56.25 -3.9368,7.874 -6.25,19.097 -6.25,28.125 0,2.083 0.9317,4.387 0,6.25 -0.8296,1.659 -48.2751,-2.953 -50,-3.125 -33.2154,-3.322 -66.534,-3.125 -100,-3.125 -13.9441,0 -33.3722,3.376 -46.875,0 -5.6561,1.883 -5.8119,-5.062 -9.375,-6.25 -4.9411,-1.647 -10.5722,1.263 -15.625,0 -6.2974,-1.574 -10.2857,-8.202 -18.5,-9.375 -3.4451,-0.492 -6.6667,2 -10,3"
       id="path6211"
       inkscape:connector-curvature="0" />
    <path
       style="fill:none;fill-rule:evenodd;stroke:#000000;stroke-width:1px;stroke-linecap:butt;stroke-linejoin:miter;stroke-opacity:1"
       d="m 2875,-38600.638 c -7.0058,-75.833 12.0471,-158.187 -6.25,-231.375 -0.6924,-2.77 -10.6467,-36.228 -9.375,-37.5 1.7629,-1.763 23.7032,0 25,0 48.9496,0 97.7342,6.25 146.875,6.25 6.0554,0 115.9411,3.441 118.75,6.25 6.454,6.454 -13.9752,62.151 -15.625,68.75 -2.2193,8.877 -5.2763,40.263 -6.25,50 -3.7099,37.099 -3.125,74.65 -3.125,112.5 0,2.758 2.1796,23.547 0,25 -12.8761,8.584 -42.5799,3.125 -56.25,3.125 -19.2721,0 -40.2208,2.128 -59.375,0 -31.3469,-3.483 -105.5041,-22.633 -134.375,-3 z"
       id="path6213"
       inkscape:connector-curvature="0" />
    <path
       style="fill:none;fill-rule:evenodd;stroke:#000000;stroke-width:1px;stroke-linecap:butt;stroke-linejoin:miter;stroke-opacity:1"
       d="m 3272,-38625.638 c -0.2365,-66.707 -0.125,-133.417 -0.125,-200.125 0,-11.208 -3.6453,-32.814 0,-43.75 0.417,-1.251 28.0449,0 28.125,0 51.3462,0 105.0932,-4.651 156.25,0 25.0789,2.28 52.7984,9.048 68.75,25 3.0822,3.082 0,24.836 0,28.125 0,24.787 1.8995,50.306 0,75 -1.6292,21.18 -7.6154,41.384 -9.375,62.5 -2.3674,28.409 6.9165,62.959 0,90.625 -0.5534,2.214 -3.4462,14.69 -6.25,15.625 -21.6354,7.212 -66.0554,-3.187 -87.5,-6.25 -8.75,-1.25 -7.5,2.5 -18.75,0 -5.476,-1.217 -10.1244,-5.15 -15.625,-6.25 -5.1072,-1.022 -10.5722,1.263 -15.625,0 -3.6436,-0.911 -6.0157,-4.57 -9.375,-6.25 -5.1865,-6.594 -12.867,-0.772 -18.75,-3.125 -27.0601,-10.824 17.2073,-2.809 -15.625,-9.375 -13.3753,-2.675 -39.7205,7.154 -50,-3.125 -7.9477,-7.948 -3.125,-24.534 -3.125,-37.625"
       id="path6215"
       inkscape:connector-curvature="0" />
    <path
       style="fill:none;fill-rule:evenodd;stroke:#000000;stroke-width:1px;stroke-linecap:butt;stroke-linejoin:miter;stroke-opacity:1"
       d="m 3666,-38685.638 c -0.7736,-49.82 -0.375,-99.669 -0.375,-149.5 0,-3.215 -1.6407,-20.781 0,-21.875 20.1345,-13.423 104.8134,-6.25 131.25,-6.25 10.7911,0 102.1817,-5.159 112.5,0 5.9883,2.994 3.125,22.515 3.125,28.125 0,25.711 -5.7711,49.773 -9.375,75 -2.142,14.994 0,31.732 0,46.875 0,29.167 0,58.333 0,87.5 0,0.89 0.9243,21.567 0,21.875 -16.3228,5.441 -81.5534,0 -103.125,0 -34.5471,0 -98.7074,10.667 -121.875,-12.5 -1.4731,-1.473 -4.7769,1.473 -6.25,0 -4.8901,-4.89 -9.7285,-80.221 -8.875,-90.25"
       id="path6217"
       inkscape:connector-curvature="0" />
    <path
       style="fill:none;fill-rule:evenodd;stroke:#000000;stroke-width:1px;stroke-linecap:butt;stroke-linejoin:miter;stroke-opacity:1"
       d="m 4081,-38606.638 c 0.5068,-73.036 0.25,-146.084 0.25,-219.125 0,-0.816 -0.7293,-24.818 0,-25 13.8728,-3.468 36.1451,0 50,0 34.375,0 68.75,0 103.125,0 1.0305,0 102.2668,-0.858 103.125,0 2.8479,2.848 0,109.167 0,125 0,27.089 0.8172,-3.412 -3.125,28.125 -4.1509,33.207 0,69.536 0,103.125 0,3.531 2.2956,19.579 0,21.875 -4.7463,4.746 -40.5455,0 -46.875,0 -17.25,0 -39.375,3.375 -56.25,0 -13.1573,-2.632 -26.6633,-10.506 -40.625,-12.5 -19.6389,-2.806 -39.9375,-5.488 -59.375,-9.375 -13.7729,-2.755 -24.5791,-11.318 -37.5,-15.625 -7.8664,-2.622 -8.8908,4.786 -24.75,-0.5"
       id="path6219"
       inkscape:connector-curvature="0" />
    <path
       style="fill:none;fill-rule:evenodd;stroke:#000000;stroke-width:1px;stroke-linecap:butt;stroke-linejoin:miter;stroke-opacity:1"
       d="m 4494,-38600.638 c -0.4811,-58.37 -0.25,-116.751 -0.25,-175.125 0,-21.317 -2.9211,-47.283 6.25,-65.625 4.7469,-9.494 51.2023,-2.494 56.25,-3.125 8.5235,-1.066 16.5409,-4.757 25,-6.25 39.2644,-6.929 88.273,-6.748 128.125,-3.125 18.2534,1.659 45.6052,10.302 62.5,18.75 3.3606,1.68 10.9476,8.206 15.625,9.375 2.0211,0.505 4.3866,-0.932 6.25,0 4.5882,2.294 5.3503,27.912 3.125,31.25 -3.2177,4.826 -13.1241,8.956 -15.625,15.625 -4.5241,12.064 -5.5858,25.185 -9.375,37.5 -4.4604,14.496 -10.3551,28.735 -12.5,43.75 -2.0624,14.437 0,29.167 0,43.75 0,36.458 0,72.917 0,109.375 0,7.656 -14.8775,1.549 -18.75,0 -17.1516,-6.861 -32.2488,-19.083 -50,-25 -18.025,-6.008 -12.9461,-1.19 -28.125,-6.25 -30.6149,-10.205 -58.5136,-12.5 -90.625,-12.5 -11.0656,0 -26.573,2.732 -37.5,0 -12.6677,-3.167 -14.9536,-9.375 -28.375,-9.375"
       id="path6221"
       inkscape:connector-curvature="0" />
    <path
       style="fill:none;fill-rule:evenodd;stroke:#000000;stroke-width:1px;stroke-linecap:butt;stroke-linejoin:miter;stroke-opacity:1"
       d="m 4844,-38606.638 c 3.4589,-61.243 -5.3454,-123.605 -0.25,-184.75 0.718,-8.616 0.6846,-53.81 3.125,-56.25 0.1053,-0.105 54.3989,-0.154 56.25,0 38.4434,3.204 0.3307,1.519 34.375,9.375 21.5025,4.962 46.8023,4.255 68.75,6.25 6.2165,0.565 80.4003,-0.85 84.375,3.125 0.7366,0.736 -0.9317,2.659 0,3.125 6.2878,3.144 26.3748,-4.875 31.25,0 5.2789,5.279 -5.4139,94.764 -6.25,103.125 -1.9483,19.483 2.7681,39.999 0,59.375 -3.6749,25.724 -3.125,51.672 -3.125,78.125 0,0.06 1.8906,26.234 0,28.125 -4.2763,4.276 -31.6914,-2.529 -34.375,-3.125 -29.7902,-6.62 -60.3528,-0.602 -90.625,-3.125 -29.4522,-2.454 -59.5742,-11.769 -87.5,-18.75 -22.6811,-5.67 -24.5687,6.681 -40.625,-9.375 -9.0764,-9.077 -3.151,9.452 -15.375,-15.25 z"
       id="path6223"
       inkscape:connector-curvature="0" />
    <path
       style="fill:none;fill-rule:evenodd;stroke:#000000;stroke-width:1px;stroke-linecap:butt;stroke-linejoin:miter;stroke-opacity:1"
       d="m 5300,-38606.638 c 0,-63.667 0,-127.333 0,-191 0,-8.3 -0.1145,-43.636 0,-43.75 2.0659,-2.066 114.6684,0 128.125,0 4.9321,0 86.3661,-1.134 87.5,0 1.9288,1.929 0,90.104 0,96.875 0,39.634 7.9543,90.341 -9.375,125 -5.9122,11.824 1.2776,12.146 -3.125,18.75 -21.8882,32.832 -128.3532,17.378 -162.5,12.5 -14.1846,-2.026 -29.0554,-11.125 -40.625,-18.375 z"
       id="path6225"
       inkscape:connector-curvature="0" />
    <path
       style="fill:none;fill-rule:evenodd;stroke:#000000;stroke-width:1px;stroke-linecap:butt;stroke-linejoin:miter;stroke-opacity:1"
       d="m 5672,-38606.638 c -0.2164,-62.624 -0.125,-125.25 -0.125,-187.875 0,-5.32 -4.4433,-52.686 -3.125,-53.125 16.2657,-5.422 36.1488,-1.819 53.125,-3.125 18.0587,-1.389 35.2433,-7.749 53.125,-9.375 20.4147,-1.856 41.9737,0 62.5,0 4.8661,0 90.2149,-0.41 90.625,0 1.7135,1.713 0,105.015 0,112.5 0,43.75 0,87.5 0,131.25 0,5.371 3.5414,27.709 0,31.25 -3.6988,3.699 -25.8735,0 -31.25,0 -22.6266,0 -49.9455,4.386 -71.875,0 -5.5006,-1.1 -10.149,-5.033 -15.625,-6.25 -10.9921,-2.443 -26.2063,0 -37.5,0 -31.9963,0 -64.9616,2.302 -96.875,-0.25"
       id="path6227"
       inkscape:connector-curvature="0" />
    <path
       style="fill:none;fill-rule:evenodd;stroke:#000000;stroke-width:1px;stroke-linecap:butt;stroke-linejoin:miter;stroke-opacity:1"
       d="m 6066,-38600.638 c -0.7012,-52.118 -0.375,-104.252 -0.375,-156.375 0,-8.843 -3.7236,-83.178 0,-90.625 0.9433,-1.887 31.7962,0 43.75,0 27.9788,0 60.0577,-4.574 87.5,0 16.6104,2.768 32.9799,10.372 50,12.5 20.5675,2.571 41.6316,3.125 62.5,3.125 11.6627,0 23.949,-3.153 28.125,9.375 4.4503,13.351 0,36.472 0,50 0,45.89 1.4269,91.981 -3.125,137.5 -0.2989,2.989 -7.2411,67.759 -12.5,62.5 -1.0416,-1.042 4.5982,-3.125 3.125,-3.125 -16.0876,0 -32.9343,5.969 -50,3.125 -8.2592,-1.377 -13.733,-10.465 -21.875,-12.5 -21.1558,-5.289 -58.2866,0 -81.25,0 -14.847,0 -32.3137,2.427 -46.875,0 -6.3582,1.085 -10.1244,-5.15 -15.625,-6.25 -7.5209,-1.504 -20.8818,3.116 -28.125,0 -5.4613,-2.35 -9.4462,-7.96 -15.25,-9.25 -4.3017,-0.956 -8.5566,3.877 -12.875,3 -5.1883,-1.054 -5.8351,-8.852 -9.125,-13"
       id="path6229"
       inkscape:connector-curvature="0" />
    <path
       style="fill:none;fill-rule:evenodd;stroke:#000000;stroke-width:1px;stroke-linecap:butt;stroke-linejoin:miter;stroke-opacity:1"
       d="m 6484,-38594.638 c 0.6572,-69.745 0.375,-139.5 0.375,-209.25 0,-13.802 -2.6278,-33.665 3.125,-37.5 5.3868,-3.591 120.546,0 137.5,0 19.2009,0 81.1581,-6.342 93.75,6.25 8.5762,8.576 2.4757,95.758 0,109.375 -1.7179,9.449 -4.8918,18.618 -6.25,28.125 -3.1203,21.842 3.8563,44.681 -3.125,65.625 -5.0472,15.142 7.0708,38.983 0,53.125 -3.8677,7.735 -30.7637,3.125 -37.5,3.125 -26.1941,0 -49.7244,-5.162 -75,-9.375 -38.4054,-6.401 -80.8635,5.347 -118.875,-0.5"
       id="path6231"
       inkscape:connector-curvature="0" />
    <path
       style="fill:none;fill-rule:evenodd;stroke:#000000;stroke-width:1px;stroke-linecap:butt;stroke-linejoin:miter;stroke-opacity:1"
       d="m 6891,-38610.638 c 0.4654,-34.37 -1.0591,-68.452 -3.5,-102.625 -1.1864,-16.61 -1.0629,-33.503 -3.125,-50 -1.1725,-9.38 -6.7822,-14.097 -9.375,-21.875 -3.142,-9.426 -5.5912,-49.51 -3.125,-59.375 1.3304,-5.321 13.411,-3.125 15.625,-3.125 33.3334,0 66.6667,0 100,0 17.4446,0 110.9011,4.7 125,0 13.7944,-4.598 -11.3536,-3.125 9.375,-3.125 2.9635,0 16.8629,-1.887 18.75,0 4.834,4.834 0,41.573 0,46.875 0,14.837 2.4317,32.285 0,46.875 1.0854,6.358 -5.1499,10.124 -6.25,15.625 -3.5503,17.752 -0.5384,38.144 -3.125,56.25 -3.099,21.693 6.5569,58.454 0,78.125 -3.0513,9.154 -4.3797,18.773 -6.25,28.125 -1.3364,6.682 2.475,13.15 -3.125,18.75 -4.2416,4.241 -38.3097,-8.533 -40.625,-9.375 -6.567,-2.388 -11.9709,-7.68 -18.75,-9.375 -1.1458,-0.287 -31.5104,0.239 -34.375,0 -19.8116,-1.651 -39.8279,-3.807 -59.375,-6.25 -14.937,-1.867 -29.0694,-9.564 -43.75,-12.5 -15.3667,-3.073 -30.9151,-3.316 -47,-3"
       id="path6233"
       inkscape:connector-curvature="0" />
    <path
       style="fill:none;fill-rule:evenodd;stroke:#000000;stroke-width:1px;stroke-linecap:butt;stroke-linejoin:miter;stroke-opacity:1"
       d="m 7319,-38606.638 c -0.4741,-63.663 -0.25,-127.334 -0.25,-191 0,-3.153 -3.6118,-37.013 0,-40.625 2.4589,-2.459 126.0731,0 140.625,0 13.6323,0 72.7022,-5.837 84.375,0 8.2378,4.119 9.375,30.054 9.375,37.5 0,50.274 0.813,100.559 -6.25,150 -2.3143,16.2 1.8145,47.681 -3.125,62.5 -3.2514,9.754 -2.0833,-1.042 -6.25,3.125 -2.2097,2.21 1.3976,6.58 0,9.375 -0.258,0.516 -8.5436,0 -9.375,0 -26.3432,0 -55.3083,3.706 -81.25,0 -25.3275,-3.618 -58.2701,2.62 -81.25,-3.125 -9.581,-2.395 -15.4171,-9.375 -25,-9.375 -5.6327,0 -20.356,1.807 -21.875,-6.25 -0.7489,-3.973 0.1667,-8.083 0.25,-12.125 z"
       id="path6235"
       inkscape:connector-curvature="0" />
    <path
       style="fill:none;fill-rule:evenodd;stroke:#000000;stroke-width:1px;stroke-linecap:butt;stroke-linejoin:miter;stroke-opacity:1"
       d="m 7681,-38597.638 c 0.5101,-60.413 0.25,-120.834 0.25,-181.25 0,-14.583 0,-29.167 0,-43.75 0,-6.336 3.125,-25.086 3.125,-18.75 0,1.042 -4.1666,0 -3.125,0 14.3252,0 29.5259,-1.185 43.75,0 23.4289,1.952 45.1144,10.812 68.75,12.5 14.8135,1.058 115.5276,-4.736 125,0 1.8634,0.932 0,4.167 0,6.25 0,31.25 0,62.5 0,93.75 0,40.625 0,81.25 0,121.875 0,2.584 2.7724,28.478 0,31.25 -3.5617,3.562 -35.9172,0.523 -40.625,0 -10.558,-1.173 -20.6797,-5.193 -31.25,-6.25 -26.2532,-2.625 -51.8952,-2.971 -78.125,-6.25 -29.3983,-3.675 -63.0266,8.804 -87.75,-9.375 z"
       id="path6237"
       inkscape:connector-curvature="0" />
    <path
       style="fill:none;fill-rule:evenodd;stroke:#000000;stroke-width:1px;stroke-linecap:butt;stroke-linejoin:miter;stroke-opacity:1"
       d="m 8094,-38603.638 c 0.041,-69.136 -9.0091,-137.841 -15.875,-206.5 -0.3824,-3.824 -4.1401,-43.412 -3.125,-43.75 14.9957,-4.999 38.3294,1.987 53.125,3.125 28.7229,2.209 58.7011,0 87.5,0 35.3383,0 62.1861,-1.146 93.75,9.375 2.9647,0.988 7.1653,-2.21 9.375,0 2.5998,2.6 0,30.147 0,31.25 0,39.506 2.4303,79.863 -3.125,118.75 -4.0753,28.527 2.751,54.247 -6.25,81.25 -1.2214,3.664 1.7207,9.058 0,12.5 -0.036,0.07 -15.9008,0 -25,0 -46.875,0 -93.75,0 -140.625,0 -10.4166,0 -21.0231,1.979 -31.25,0 -6.3647,-1.232 -12.0171,-6 -18.5,-6 -4.6971,0 -8.2709,4.585 -12.75,6 -10.8963,3.441 -19.5572,-1.966 -28.125,-6.25 -4.0416,-2.021 -3.125,2.82 -3.125,-2.75"
       id="path6239"
       inkscape:connector-curvature="0" />
    <path
       style="fill:none;fill-rule:evenodd;stroke:#000000;stroke-width:1px;stroke-linecap:butt;stroke-linejoin:miter;stroke-opacity:1"
       d="m 8488,-38610.638 c -8.8046,-53.072 0.8015,-109.14 -6.75,-162 -0.4097,-2.868 -6.2043,-65.671 -3.125,-68.75 2.3685,-2.369 45.4911,-2.866 46.875,-3.125 17.8804,-3.353 35.1446,-9.734 53.125,-12.5 19.2667,-2.964 39.9377,-1.358 59.375,-3.125 5.7122,-0.519 101.3879,-7.987 103.125,-6.25 9.7472,9.747 1.062,72.633 0,87.5 -3.4177,47.848 -5.3982,96.029 -9.375,143.75 -0.9031,10.837 2.0172,40.625 -12.5,40.625 -25.4108,0 -64.1188,5.845 -87.5,0 -5.442,-1.361 -10.149,-5.033 -15.625,-6.25 -20.7373,-4.608 -90.8032,-1.035 -118.625,0.125"
       id="path6241"
       inkscape:connector-curvature="0" />
    <path
       style="fill:none;fill-rule:evenodd;stroke:#000000;stroke-width:1px;stroke-linecap:butt;stroke-linejoin:miter;stroke-opacity:1"
       d="m 8875,-38610.638 c -1.3943,-35.168 2.0664,-70.622 0,-105.75 -0.4325,-7.353 -2.005,-14.595 -3.125,-21.875 -0.9634,-6.263 -2.639,-12.433 -3.125,-18.75 -2.052,-26.676 0,-54.427 0,-81.25 0,-0.832 -0.516,-9.117 0,-9.375 23.2269,-11.614 68.0492,-7.539 93.75,-9.375 52.2535,-3.732 103.9852,-4.356 156.25,0 8.693,0.724 45.4114,-6.052 50,3.125 0.049,0.1 -7.4698,11.814 -9.375,15.625 -2.9829,5.966 -9.5171,9.659 -12.5,15.625 -5.5155,11.031 -3.7654,20.069 -6.25,31.25 -4.4332,19.95 -9.375,25.251 -9.375,46.875 0,10.417 0,20.833 0,31.25 0,37.5 0,75 0,112.5 0,6.86 -3.125,6.823 -3.125,12.5 0,0.831 0.5161,9.117 0,9.375 -7.9202,3.96 -47.6045,0 -50,0 -24.6473,0 -47.846,0.303 -71.875,-6.25 -9.569,-2.61 -21.0001,-7.911 -31.25,-9.375 -25.6247,-3.661 -56.1035,6.287 -81.25,0 -4.4526,-1.113 -6.6956,-6.349 -12.75,-6.125"
       id="path6243"
       inkscape:connector-curvature="0" />
    <path
       style="fill:none;fill-rule:evenodd;stroke:#000000;stroke-width:1px;stroke-linecap:butt;stroke-linejoin:miter;stroke-opacity:1"
       d="m 9288,-38591.638 c -0.8689,-64.489 -0.5,-129.001 -0.5,-193.5 0,-4.341 -3.9524,-39.21 3.125,-40.625 6.0764,-1.215 15.4948,0.911 21.875,0 12.7915,-1.827 24.9835,-6.872 37.5,-9.375 28.8465,-5.769 61.1789,-3.125 90.625,-3.125 14.7343,0 68.3371,-6.663 78.125,3.125 5.6868,5.687 3.125,111.73 3.125,121.875 0,45.245 -13.2226,87.031 -18.75,131.25 -0.6386,5.109 -2.0599,42.685 -3.125,43.75 -1.996,1.996 -13.2348,-8.778 -15.625,-9.375 -8.9031,-2.226 -19.0269,-1.825 -28.125,-3.125 -19.1163,-2.731 -37.2438,-9.785 -56.25,-12.5 -29.64,-4.234 -61.2206,-1.249 -91,-3.375"
       id="path6245"
       inkscape:connector-curvature="0" />
    <path
       style="fill:none;fill-rule:evenodd;stroke:#000000;stroke-width:1px;stroke-linecap:butt;stroke-linejoin:miter;stroke-opacity:1"
       d="m 9669,-38578.638 c -0.5253,-69.869 -0.25,-139.751 -0.25,-209.625 0,-5.126 -1.676,-52.165 3.125,-53.125 16.9968,-3.399 39.1213,0 56.25,0 37.5,0 75,0 112.5,0 10.1583,0 104.8319,3.414 109.375,12.5 6.7354,13.471 -7.6145,51.541 -9.375,65.625 -2.0081,16.065 0,33.828 0,50 0,30.221 -1.3739,58.244 -6.25,87.5 -1.4074,8.444 2.7106,19.993 0,28.125 -0.9317,2.795 -4.9324,3.615 -6.25,6.25 -3.2457,6.491 -0.7778,20.701 -9.375,25 -13.901,6.95 -52.1429,-4.752 -65.625,-6.25 -18.2526,-2.028 -37.8781,0 -56.25,0 -31.9744,0 -99.2797,8.006 -127.875,-6 z"
       id="path6247"
       inkscape:connector-curvature="0" />
    <path
       style="fill:none;fill-rule:evenodd;stroke:#000000;stroke-width:1px;stroke-linecap:butt;stroke-linejoin:miter;stroke-opacity:1"
       d="m 10081,-38588.638 c 0.484,-71.746 0.25,-143.501 0.25,-215.25 0,-6.314 -3.667,-30.979 3.125,-34.375 10.386,-5.193 32.641,1.709 43.75,0 7.495,-1.153 14.421,-4.853 21.875,-6.25 31.207,-5.851 28.783,-1.351 62.5,-3.125 13.262,-0.698 101.109,-8.266 112.5,3.125 4.595,4.595 0,37.716 0,43.75 0,65.625 0,131.25 0,196.875 0,7.215 -2.106,30.74 -9.375,34.375 -10.751,5.375 -71.774,-2.075 -84.375,-3.125 -19.655,-1.638 -39.72,1.638 -59.375,0 -32.031,-2.669 -64.761,-4.286 -96.875,-3"
       id="path6249"
       inkscape:connector-curvature="0" />
    <path
       style="fill:none;fill-rule:evenodd;stroke:#000000;stroke-width:1px;stroke-linecap:butt;stroke-linejoin:miter;stroke-opacity:1"
       d="m 10503,-38572.638 c 0.223,-34.374 0.125,-68.75 0.125,-103.125 0,-28.641 2.598,-58.927 0,-87.5 -1.942,-21.363 -6.25,-40.919 -6.25,-62.5 0,-3.112 -1.802,-20.073 0,-21.875 1.993,-1.993 39.84,0 40.625,0 52.083,0 104.167,0 156.25,0 6.493,0 44.192,-4.484 46.875,6.25 9.207,36.829 -17.002,65.891 -21.875,100 -2.215,15.502 -2.083,31.25 -3.125,46.875 -2.989,44.837 1.815,89.918 -3.125,134.375 -0.409,3.686 3.666,24.73 -3.125,28.125 -3.381,1.69 -6.438,-9.563 -9.375,-12.5 -9.275,-9.275 -21.134,-13.97 -34.375,-15.625 -4.134,-0.517 -8.333,0 -12.5,0 -7.292,-2.083 -14.38,-5.097 -21.875,-6.25 -4.256,-0.655 -28.919,0.546 -34.375,0 -25.988,-2.599 -51.699,-2.113 -77.875,-3.25"
       id="path6251"
       inkscape:connector-curvature="0" />
    <path
       style="fill:none;fill-rule:evenodd;stroke:#000000;stroke-width:1px;stroke-linecap:butt;stroke-linejoin:miter;stroke-opacity:1"
       d="m 10928,-38585.638 c -5.294,-33.499 -11.532,-66.401 -18.625,-99.5 -7.277,-33.959 -5.385,-78.655 -15.625,-109.375 -0.457,-1.371 -1.101,-14.524 0,-15.625 11.206,-11.206 87.506,-9.375 103.125,-9.375 37.593,0 116.225,-7.513 150,9.375 9.296,4.648 6.25,16.68 6.25,25 0,53.125 0,106.25 0,159.375 0,8.463 3.969,35.516 -6.25,40.625 -11.175,5.587 -92.175,0 -109.375,0 -16.921,0 -131.253,3.124 -137.5,0 -4.492,-2.246 -4.078,-3.186 -9,-3.5"
       id="path6253"
       inkscape:connector-curvature="0" />
    <path
       style="fill:none;fill-rule:evenodd;stroke:#000000;stroke-width:1px;stroke-linecap:butt;stroke-linejoin:miter;stroke-opacity:1"
       d="m 11272,-38581.638 c -0.241,-73.04 -0.125,-146.084 -0.125,-219.125 0,-13.542 0,-27.083 0,-40.625 0,-2.083 -1.473,-4.777 0,-6.25 4.348,-4.348 83.112,8.874 90.625,9.375 17.423,1.161 94.451,5.038 109.375,12.5 6.383,3.191 9.602,12.727 12.5,15.625 1.563,1.562 7.813,-1.563 9.375,0 3.432,3.432 0,130.868 0,143.75 0,18.579 5.65,113.699 0,125 -1.307,2.613 -38.448,0.198 -40.625,0 -24.765,-2.251 -47.501,-12.578 -71.875,-15.625 -4.134,-0.517 -8.458,1.01 -12.5,0 -4.519,-1.13 -7.981,-5.12 -12.5,-6.25 -8.084,-2.021 -16.731,1.034 -25,0 -9.53,-1.191 -18.808,-3.921 -28.125,-6.25 -11.68,-2.92 -19.079,-9.448 -31.125,-12.125 z"
       id="path6255"
       inkscape:connector-curvature="0" />
    <path
       style="fill:none;fill-rule:evenodd;stroke:#000000;stroke-width:1px;stroke-linecap:butt;stroke-linejoin:miter;stroke-opacity:1"
       d="m 11681,-38594.638 c 1.939,-34.461 -1.07,-68.7 -2.875,-103 -0.909,-17.278 -0.172,-118.578 0,-118.75 1.774,-1.775 50.997,-6.057 53.125,-6.25 50.658,-4.605 102.009,-3.125 153.125,-3.125 9.314,0 23.061,-0.754 28.125,9.375 3.124,6.248 -0.609,25.162 0,31.25 3.598,35.979 9.375,73.385 9.375,109.375 0,4.747 1.364,73.636 0,75 -0.885,0.885 -25.157,1.906 -31.25,3.125 -29.037,5.807 -64.182,6.41 -93.75,3.125 -29.718,-3.302 -88.946,-17.262 -115.875,-0.125 z"
       id="path6257"
       inkscape:connector-curvature="0" />
    <path
       style="fill:none;fill-rule:evenodd;stroke:#000000;stroke-width:1px;stroke-linecap:butt;stroke-linejoin:miter;stroke-opacity:1"
       d="m 12078,-38619.638 c 0.231,-36.416 0.125,-72.834 0.125,-109.25 0,-29.167 0,-58.333 0,-87.5 0,-2.105 -1.197,-21.476 0,-21.875 20.246,-6.749 62.809,1.466 84.375,3.125 30.817,2.37 62.797,0 93.75,0 2.162,0 39.35,-2.551 40.625,0 8.144,16.289 3.125,105.231 3.125,131.25 0,3.464 0.913,77.212 0,78.125 -0.669,0.669 -50.963,0 -53.125,0 -35.269,0 -74.448,4.99 -109.375,0 -11.015,-1.574 -35.032,-8.105 -46.875,-3.125 -4.809,2.022 -7.408,9.25 -12.625,9.25 -0.989,0 -12.402,-10.248 -28,-9"
       id="path6261"
       inkscape:connector-curvature="0" />
    <path
       style="fill:none;fill-rule:evenodd;stroke:#000000;stroke-width:1px;stroke-linecap:butt;stroke-linejoin:miter;stroke-opacity:1"
       d="m 12503,-38638.638 c 0.229,-27.999 0.125,-56 0.125,-84 0,-22.147 2.744,-46.796 0,-68.75 -1.095,-8.759 -12.833,-39.959 -9.375,-46.875 2.795,-5.59 12.5,0 18.75,0 27.44,0 54.059,1.033 81.25,3.125 34.147,2.627 68.089,4.988 100,15.625 5.922,1.974 23.975,-4.15 28.125,0 4.246,4.246 4.814,95.015 6.25,109.375 0.05,0.462 0.289,84.086 0,84.375 -8.435,8.435 -58.202,6.25 -68.75,6.25 -27.664,0 -56.873,2.75 -84.375,0 -9.556,-0.956 -18.595,-5.059 -28.125,-6.25 -22.023,-2.753 -51.011,6.954 -71.875,0 -4.433,-1.478 -4.795,-3.257 -9,-2.875"
       id="path6263"
       inkscape:connector-curvature="0" />
    <path
       style="fill:none;fill-rule:evenodd;stroke:#000000;stroke-width:1px;stroke-linecap:butt;stroke-linejoin:miter;stroke-opacity:1"
       d="m 12863,-38610.638 c -6.876,-59.485 -3.625,-120.645 -3.625,-180.75 0,-8.799 -4.567,-34.615 0,-43.75 2.87,-5.74 18.42,-3.125 21.875,-3.125 41.44,0 83.64,-2.298 125,0 30.135,1.674 67.569,9.769 96.875,0 2.51,-0.837 35.608,-13.159 37.5,-9.375 9.602,19.204 -16.319,151.619 -25,171.875 -1.479,3.452 -5.062,5.812 -6.25,9.375 -3.318,9.955 -1.82,23.937 -3.125,34.375 -0.764,6.115 -1.601,38.3 -6.25,40.625 -5.309,2.654 -81.484,1.016 -90.625,0 -5.279,-0.587 -10.417,-2.083 -15.625,-3.125 -6.25,-1.042 -12.445,-2.495 -18.75,-3.125 -30.225,-3.023 -60.763,7.336 -87.5,-9.375 -19.941,-12.463 -24.5,8.876 -24.5,-15.625"
       id="path6265"
       inkscape:connector-curvature="0" />
    <path
       style="fill:none;fill-rule:evenodd;stroke:#000000;stroke-width:1px;stroke-linecap:butt;stroke-linejoin:miter;stroke-opacity:1"
       d="m 13303,-38625.638 c 0.234,-63.582 0.125,-127.167 0.125,-190.75 0,-13.542 0,-27.083 0,-40.625 0,-1.042 -0.988,-2.796 0,-3.125 23.222,-7.741 91.092,6.25 118.75,6.25 13.567,0 30.174,-1.939 43.75,0 2.178,0.311 49.614,11.343 50,12.5 4.909,14.727 0,64.202 0,81.25 0,24.545 -2.703,50.672 0,75 1.477,13.294 6.25,23.809 6.25,37.5 0,7.834 6.064,47.979 0,50 -15.766,5.255 -43.059,0 -59.375,0 -22.418,0 -43.536,-0.671 -65.625,-3.125 -20.386,-2.265 -42.278,3.37 -62.5,0 -13.886,-2.314 -23.925,-7.634 -37.375,-9.875"
       id="path6267"
       inkscape:connector-curvature="0" />
    <path
       style="fill:none;fill-rule:evenodd;stroke:#000000;stroke-width:1px;stroke-linecap:butt;stroke-linejoin:miter;stroke-opacity:1"
       d="m 13644,-38613.638 c -7.056,-57.113 -3.375,-116.676 -3.375,-174.625 0,-6.601 -4.252,-39.498 0,-43.75 3.683,-3.683 10.469,0.736 15.625,0 20.378,-2.911 4.918,-4.14 28.125,-6.25 40.935,-3.721 83.794,0 125,0 4.019,0 92.075,-4.8 93.75,-3.125 13.067,13.066 6.25,49.378 6.25,65.625 0,50 0,100 0,150 0,13.662 5.185,28.338 -9.375,31.25 -21.786,4.357 -43.554,0.366 -65.625,3.125 -41.167,5.146 -81.01,0 -121.875,0 -5.155,0 -52.223,0.901 -53.125,0 -3.277,-3.277 -5.708,-6.25 -12.375,-6.25"
       id="path6269"
       inkscape:connector-curvature="0" />
    <path
       style="fill:none;fill-rule:evenodd;stroke:#000000;stroke-width:1px;stroke-linecap:butt;stroke-linejoin:miter;stroke-opacity:1"
       d="m 14106,-38603.638 c 0.445,-57.37 0.25,-114.751 0.25,-172.125 0,-10.31 1.451,-22.097 -3.125,-31.25 -1.398,-2.795 -2.21,-11.585 0,-9.375 1.042,1.042 -4.443,3.784 -3.125,3.125 15.967,-7.984 2.298,-6.25 18.75,-6.25 10.278,0 17.693,-2.177 28.125,-3.125 32.716,-2.974 67.139,0 100,0 5.047,0 81.959,-8.666 84.375,-6.25 6.992,6.991 3.125,31.375 3.125,40.625 0,53.125 0,106.25 0,159.375 0,12.286 4.8,59.15 0,68.75 -1.305,2.61 -66.578,-14.448 -71.875,-15.625 -37.937,-8.431 6.557,1.076 -31.25,-3.125 -14.656,-1.629 -29.371,-6.979 -43.75,-9.375 -12.014,-2.002 -25.724,2.944 -37.5,0 -20.026,-5.007 -44.106,-2.549 -66,-3.375"
       id="path6271"
       inkscape:connector-curvature="0" />
    <path
       style="fill:none;fill-rule:evenodd;stroke:#000000;stroke-width:1px;stroke-linecap:butt;stroke-linejoin:miter;stroke-opacity:1"
       d="m 14447,-38600.638 c -0.237,-32.332 -0.125,-64.667 -0.125,-97 0,-25.002 -6.699,-145.976 3.125,-165.625 1.746,-3.492 69.163,7.624 75,9.375 19.416,5.825 5.888,8.052 28.125,12.5 39.141,7.828 79.866,-6.25 118.75,-6.25 1.556,0 27.783,-1.026 28.125,0 5.404,16.212 0,46.132 0,62.5 0,49.283 -3.125,97.986 -3.125,146.875 0,5.244 4.329,45.011 -3.125,46.875 -17.299,4.325 -63.881,2.481 -81.25,0 -12.468,-1.781 -25.138,-6.903 -37.5,-9.375 -4.283,-0.857 -101.744,-3.815 -103.125,-3.125 -10.383,5.191 -23.568,3.686 -33.875,0.25"
       id="path6273"
       inkscape:connector-curvature="0" />
    <path
       style="fill:none;fill-rule:evenodd;stroke:#000000;stroke-width:1px;stroke-linecap:butt;stroke-linejoin:miter;stroke-opacity:1"
       d="m 14875,-38603.638 c 0,-66.75 0,-133.5 0,-200.25 0,-6.443 -4.688,-39.844 3.125,-43.75 28.902,-14.451 128.995,-9.375 165.625,-9.375 4.409,0 104.699,-1.551 106.25,0 6.07,6.07 -19.826,142.98 -21.875,159.375 -1.847,14.779 3.38,120.185 -6.25,125 -10.869,5.434 -94.299,-14.108 -112.5,-15.625 -19.203,-1.6 -43.414,-2.727 -62.5,0 -13.027,1.861 -25.024,10.005 -37.5,12.5 -13.956,2.791 -33.744,-0.477 -46.375,0.125"
       id="path6275"
       inkscape:connector-curvature="0" />
    <path
       style="fill:none;fill-rule:evenodd;stroke:#000000;stroke-width:1px;stroke-linecap:butt;stroke-linejoin:miter;stroke-opacity:1"
       d="m 15284,-38585.638 c -4.881,-56.787 -2.75,-114.323 -2.75,-171.375 0,-6.382 -1.192,-120.683 0,-121.875 3.427,-3.427 28.634,2.168 34.375,3.125 40.496,6.749 83.895,6.25 125,6.25 13.693,0 33.402,-3.368 46.875,0 4.302,1.075 12.999,4.122 15.625,9.375 4.813,9.626 0,37.272 0,46.875 0,39.583 0,79.167 0,118.75 0,5.548 1.125,120.75 0,121.875 -3.419,3.419 -29.98,0.399 -34.375,0 -31.018,-2.82 -62.946,0.298 -93.75,-3.125 -11.762,-1.307 -22.901,-7.08 -34.375,-9.375 -8.588,-1.718 -23.542,3.854 -31.25,0 -3.02,-1.51 -6.262,-9.671 -6.375,-12.5"
       id="path6277"
       inkscape:connector-curvature="0" />
    <path
       style="fill:none;fill-rule:evenodd;stroke:#000000;stroke-width:1px;stroke-linecap:butt;stroke-linejoin:miter;stroke-opacity:1"
       d="m 15694,-38594.638 c -0.483,-32.245 -0.25,-64.501 -0.25,-96.75 0,-25.779 5.609,-96.315 0,-118.75 -2.478,-9.91 -3.125,-19.307 -3.125,-31.25 0,-3.855 -2.738,-19.137 0,-21.875 4.376,-4.376 21.281,6.052 21.875,6.25 36.712,12.237 80.606,9.375 118.75,9.375 29.29,0 60.323,-0.316 87.5,-9.375 1.04,-0.347 20.203,-6.469 21.875,-3.125 8.513,17.027 -7.852,84.848 -9.375,103.125 -3.578,42.935 -9.375,85.052 -9.375,128.125 0,16.927 2.194,61.403 0,62.5 -14.292,7.146 -92.141,-13.589 -112.5,-15.625 -10.365,-1.037 -20.833,0 -31.25,0 -7.14,0 -72.916,0.915 -78.125,-3.125 -2.96,-2.295 -4,-6.333 -6,-9.5 z"
       id="path6279"
       inkscape:connector-curvature="0" />
    <path
       style="fill:none;fill-rule:evenodd;stroke:#000000;stroke-width:1px;stroke-linecap:butt;stroke-linejoin:miter;stroke-opacity:1"
       d="m 16125,-38635.638 c -1.663,-59.326 -3.125,-118.089 -3.125,-177.625 0,-4.898 -4.331,-39.419 0,-43.75 2.946,-2.946 8.333,0 12.5,0 30.022,0 49.329,-3.632 78.125,-6.25 17.376,-1.58 57.714,-4.786 68.75,6.25 1.473,1.473 4.777,-1.473 6.25,0 8.399,8.399 3.125,100.036 3.125,115.625 0,29.92 -2.13,60.808 0,90.625 0.83,11.616 5.091,22.787 6.25,34.375 0.415,4.146 -0.817,8.414 0,12.5 0.203,1.017 5.712,3.663 3.125,6.25 -2.558,2.558 -5.274,-2.881 -6.25,-3.125 -12.147,-3.037 -24.762,-2.611 -37.5,-6.25 -11.481,-3.28 -23.358,-3.496 -34.375,-6.25 -9.439,0.166 -13.8,-10.193 -21.875,-12.5 -4.006,-1.145 -8.375,0.589 -12.5,0 -31.064,-4.438 -45.191,-1.22 -74.5,-15.875"
       id="path6281"
       inkscape:connector-curvature="0" />
    <path
       style="fill:none;fill-rule:evenodd;stroke:#000000;stroke-width:1px;stroke-linecap:butt;stroke-linejoin:miter;stroke-opacity:1"
       d="m 16481,-38613.638 c 0.482,-55.079 0.25,-110.168 0.25,-165.25 0,-14.099 -6.051,-75.397 -3.125,-81.25 1.288,-2.576 36.169,-3.125 40.625,-3.125 32.461,0 82.258,-5.499 112.5,0 16.645,3.026 32.934,10.367 50,12.5 13.055,1.632 27.398,0 40.625,0 7.174,0 45.82,-5.236 50,3.125 4.434,8.869 -5.136,17.202 -6.25,25 -3.33,23.312 -6.25,44.633 -6.25,68.75 0,22.2 0.393,152.732 -9.375,162.5 -4.96,4.959 -117.81,-4.57 -131.25,-6.25 -35.897,-4.487 -73.603,1.985 -109.375,-3.125 -10.282,-1.469 -18.04,-11.842 -28.375,-12.875 -5.553,-0.555 -9.892,5.588 -15.375,6.625 -0.163,0.03 -17.379,-5.171 -18.625,-6.625"
       id="path6283"
       inkscape:connector-curvature="0" />
    <path
       style="fill:none;fill-rule:evenodd;stroke:#000000;stroke-width:1px;stroke-linecap:butt;stroke-linejoin:miter;stroke-opacity:1"
       d="m 16878,-38597.638 c 2.844,-65.894 -3,-131.376 -3,-196.875 0,-12.781 -0.204,-46.773 0,-46.875 5.59,-2.795 12.531,0.622 18.75,0 10.57,-1.057 20.68,-5.193 31.25,-6.25 40.674,-4.068 84.11,0 125,0 9.284,0 86.859,-3.767 93.75,3.125 2.657,2.657 -6.25,135.075 -6.25,150 0,7.336 0.938,102.187 0,103.125 -4.065,4.065 -42.897,0 -43.75,0 -27.724,0 -51.072,-10.706 -78.125,-15.625 -18.251,-3.319 -40.735,0 -59.375,0 -28.043,0 -60.463,-3.12 -87.25,0.375"
       id="path6285"
       inkscape:connector-curvature="0" />
    <path
       style="fill:none;fill-rule:evenodd;stroke:#000000;stroke-width:1px;stroke-linecap:butt;stroke-linejoin:miter;stroke-opacity:1"
       d="m 17278,-38594.638 c -3.674,-63.01 8.973,-130.109 -6.125,-190.5 -1.471,-5.884 1.191,-12.796 0,-18.75 -1.256,-6.282 -8.984,-36.133 0,-40.625 9.797,-4.899 36.737,0 46.875,0 45.009,0 89.648,-0.602 134.375,3.125 7.124,0.594 92.793,3.38 93.75,6.25 3.625,10.873 2.03,63.757 0,71.875 -8.306,33.223 -10.257,14.59 -12.5,43.75 -2.341,30.436 1.777,67.464 -3.125,96.875 -1.588,9.529 -3.125,9.78 -3.125,18.75 0,0.226 1.456,24.272 0,25 -10.36,5.18 -46.712,-1.583 -59.375,0 -12.692,1.586 -24.808,7.788 -37.5,9.375 -26.37,3.296 -67.452,3.287 -93.75,0 -15.593,-1.949 -31.765,-3.228 -46.875,-6.25 -6.912,-1.383 -12.225,-9.375 -12.625,-18.875 z"
       id="path6287"
       inkscape:connector-curvature="0" />
    <path
       style="fill:none;fill-rule:evenodd;stroke:#000000;stroke-width:1px;stroke-linecap:butt;stroke-linejoin:miter;stroke-opacity:1"
       d="m 17697,-38606.638 c -6.079,-26.371 -3.25,-54.644 -3.25,-81.625 0,-31.04 4.411,-65.996 0,-96.875 -1.075,-7.529 -7.248,-26.13 -3.125,-34.375 3.164,-6.329 10.426,-1.825 15.625,-3.125 25.24,-6.31 51.675,-7.34 78.125,-9.375 21.158,-1.628 41.24,-6.25 62.5,-6.25 1.542,0 92.2,-1.55 93.75,0 11.079,11.078 9.375,94.598 9.375,109.375 0,31.453 7.441,91.368 -6.25,118.75 -1.639,3.278 2.494,13.131 0,15.625 -9.057,9.057 -43.645,3.125 -53.125,3.125 -27.532,0 -60.306,4.532 -87.5,0 -59.038,-9.84 26.312,-3.619 -31.25,-9.375 -20.454,-2.046 -42.074,-0.109 -62.5,-3.125 -7.287,-1.076 -14.963,-0.579 -21.875,-3.125 -1.242,-0.458 0.664,-3.03 -3.5,-3.625"
       id="path6289"
       inkscape:connector-curvature="0" />
    <path
       style="fill:none;fill-rule:evenodd;stroke:#000000;stroke-width:1px;stroke-linecap:butt;stroke-linejoin:miter;stroke-opacity:1"
       d="m 18069,-38603.638 c -0.491,-45.912 -0.25,-91.834 -0.25,-137.75 0,-11.066 -2.965,-100.16 0,-103.125 6.304,-6.304 40.968,2.588 46.875,3.125 18.739,1.703 40.695,1.557 59.375,0 16.395,-1.366 102.197,-22.462 109.375,6.25 5.053,20.212 0,47.922 0,68.75 0,52.083 0,104.167 0,156.25 0,5.502 4.898,35.727 0,40.625 -5.156,5.156 -14.682,1.199 -21.875,0 -9.093,-1.516 -18.651,-8.022 -28.125,-9.375 -24.51,-3.502 -50.387,-0.05 -75,-3.125 -13.118,-1.64 -88.947,-0.989 -93.375,-6.625"
       id="path6291"
       inkscape:connector-curvature="0" />
    <path
       style="fill:none;fill-rule:evenodd;stroke:#000000;stroke-width:1px;stroke-linecap:butt;stroke-linejoin:miter;stroke-opacity:1"
       d="m 18491,-38603.638 c -4.821,-13.366 -3.5,-23.414 -3.5,-37.75 0,-35.748 5.676,-94.07 0,-128.125 -1.29,-7.739 -4.422,-14.563 -6.25,-21.875 -3.44,-13.76 0,-32.511 0,-46.875 0,-1.287 -0.827,-8.548 0,-9.375 0.347,-0.347 40.16,-3.125 40.625,-3.125 55.814,0 110.674,-0.619 165.625,6.25 11.59,1.449 23.75,-2.188 34.375,3.125 12.13,6.065 11.17,29.982 12.5,40.625 1.855,14.836 7.865,28.654 9.375,43.75 3.771,37.706 0,77.633 0,115.625 0,9.769 0.331,31.14 0,31.25 -2.604,0.868 -12.153,-0.579 -15.625,0 -32.871,5.478 -69.472,11.859 -103.125,6.25 -20.198,-3.366 -24.604,-8.099 -43.75,-9.375 -2.608,-0.174 -95.786,1.088 -96.875,0 -3.627,-3.627 4.053,-2.825 -3.375,-3.375"
       id="path6293"
       inkscape:connector-curvature="0" />
    <path
       style="fill:none;fill-rule:evenodd;stroke:#000000;stroke-width:1px;stroke-linecap:butt;stroke-linejoin:miter;stroke-opacity:1"
       d="m 18888,-38622.638 c -6.544,-51.297 6.797,-105.173 -0.5,-156.25 -2.576,-18.031 -6.25,-34.426 -6.25,-53.125 0,-8.333 0,-16.667 0,-25 0,-3.125 -3.125,-9.375 0,-9.375 1.042,0 -1.042,3.125 0,3.125 1.473,0 1.681,-2.836 3.125,-3.125 21.557,-4.311 46.845,1.46 68.75,0 60.441,-4.03 -7.888,-3.125 46.875,-3.125 16.09,0 110.374,-5.751 121.875,0 5.489,2.745 17.864,50.932 18.75,56.25 5.232,31.39 0,68.155 0,100 0,4.874 0.699,99.301 0,100 -10.985,10.985 -72.102,6.25 -90.625,6.25 -41.667,0 -83.333,0 -125,0 -11.457,0 -42.731,5.197 -53.125,0 -9.729,-4.865 2.085,-2.178 -5.875,-3.625"
       id="path6295"
       inkscape:connector-curvature="0" />
    <path
       style="fill:none;fill-rule:evenodd;stroke:#000000;stroke-width:1px;stroke-linecap:butt;stroke-linejoin:miter;stroke-opacity:1"
       d="m 19300,-38600.638 c -9.504,-56.618 2.054,-115.034 -3.125,-172 -0.971,-10.681 -4.048,-63.884 -9.375,-71.875 -1.494,-2.241 -7.515,-4.985 -3.125,-9.375 1.473,-1.473 4.229,0.505 6.25,0 14.477,-3.619 28.416,-10.796 43.75,-12.5 13.459,-1.496 27.123,1.038 40.625,0 24.168,-1.859 127.387,-13.238 143.75,3.125 10.985,10.985 1.823,51.304 3.125,65.625 3.4,37.395 6.25,74.868 6.25,112.5 0,6.221 2.008,87.203 -3.125,90.625 -15.117,10.078 -78.902,1.634 -96.875,0 -42.565,-3.87 -85.128,-6.699 -128.125,-6.125 z"
       id="path6297"
       inkscape:connector-curvature="0" />
    <path
       style="fill:none;fill-rule:evenodd;stroke:#000000;stroke-width:1px;stroke-linecap:butt;stroke-linejoin:miter;stroke-opacity:1"
       d="m 19656,-38603.638 c 0.432,-70.914 0.25,-141.834 0.25,-212.75 0,-6.758 4.393,-41.259 9.375,-43.75 6.831,-3.416 30.702,0 37.5,0 30.341,0 64.06,-4.298 93.75,3.125 17.893,4.473 34.27,13.739 53.125,15.625 13.504,1.35 87.216,-6.818 93.75,6.25 9.124,18.248 -10.773,54.195 -15.625,68.75 -5.553,16.658 0,45.034 0,62.5 0,28.56 0,56.207 -3.125,84.375 -2.19,19.708 6.249,46.878 0,65.625 -3.806,11.417 -31.072,6.696 -37.5,3.125 -5.831,-3.239 -9.769,-9.306 -15.625,-12.5 -9.849,-5.372 -20.504,-9.276 -31.25,-12.5 -31.189,-9.357 -64.118,-15.11 -96.875,-18.75 -31.036,-3.449 -58.392,4.69 -87.75,-9.125 z"
       id="path6299"
       inkscape:connector-curvature="0" />
    <path
       style="fill:none;fill-rule:evenodd;stroke:#000000;stroke-width:1px;stroke-linecap:butt;stroke-linejoin:miter;stroke-opacity:1"
       d="m 20072,-38603.638 c -0.195,-28.208 -0.125,-56.417 -0.125,-84.625 0,-16.313 -4.919,-152.663 0,-162.5 3.13,-6.261 26.904,-2.73 31.25,-3.125 47.063,-4.279 94.223,-6.156 140.625,3.125 11.882,2.376 77.762,2.581 84.375,12.5 9.878,14.816 -15.846,117.697 -18.75,131.25 -6.673,31.142 -3.125,65.008 -3.125,96.875 0,5.174 1.731,16.682 0,21.875 -2.824,8.471 -36.792,5.867 -40.625,6.25 -4.274,0.427 -8.333,2.083 -12.5,3.125 -6.25,1.042 -12.43,2.673 -18.75,3.125 -54.835,3.917 -110.425,-2.266 -165.375,0.125"
       id="path6301"
       inkscape:connector-curvature="0" />
    <path
       style="fill:none;fill-rule:evenodd;stroke:#000000;stroke-width:1px;stroke-linecap:butt;stroke-linejoin:miter;stroke-opacity:1"
       d="m 20491,-38594.638 c -0.728,-60.368 -0.375,-120.751 -0.375,-181.125 0,-14.583 0,-29.167 0,-43.75 0,-2.083 -1.473,-4.777 0,-6.25 18.355,-18.355 141.076,-15.496 162.5,-9.375 6.719,1.92 12.169,7.025 18.75,9.375 23.903,8.537 49.684,17.656 75,21.875 3.899,0.65 15.432,-0.193 18.75,3.125 13.96,13.96 -5.133,56.025 -9.375,68.75 -6.279,18.837 -12.357,42.892 -15.625,62.5 -2.153,12.918 3.171,27.94 0,40.625 -1.608,6.433 -4.642,12.317 -6.25,18.75 -0.758,3.032 1.398,6.58 0,9.375 -3.711,7.421 -27.757,2.463 -34.375,3.125 -48.78,4.878 -164.298,21.686 -209,3 z"
       id="path6303"
       inkscape:connector-curvature="0" />
    <path
       style="fill:none;fill-rule:evenodd;stroke:#000000;stroke-width:1px;stroke-linecap:butt;stroke-linejoin:miter;stroke-opacity:1"
       d="m 20863,-38578.638 c -0.793,-31.326 -0.5,-62.667 -0.5,-94 0,-13.85 5.413,-117.3 0,-128.125 -2.458,-4.916 -3.125,-3.543 -3.125,-9.375 0,-2.729 -2.4,-22.6 0,-25 24.717,-24.717 106.856,-18.75 140.625,-18.75 27.238,0 51.814,1.865 78.125,6.25 8.191,1.365 23.818,-3.716 31.25,0 13.006,6.503 -3.341,-0.216 3.125,6.25 2.839,2.839 13.567,8.383 15.625,12.5 1.398,2.795 -0.514,6.292 0,9.375 9.616,57.696 1.266,116.81 -12.5,171.875 -1.37,5.482 0.833,28.612 -3.125,31.25 -10.157,6.771 -10.091,0.179 -21.875,3.125 -4.519,1.13 -8.138,4.614 -12.5,6.25 -17.992,6.747 -43.311,10.755 -62.5,12.5 -28.702,2.609 -58.691,0 -87.5,0 -14.595,0 -86.571,10.037 -97.125,-0.125"
       id="path6305"
       inkscape:connector-curvature="0" />
    <path
       style="fill:none;fill-rule:evenodd;stroke:#000000;stroke-width:1px;stroke-linecap:butt;stroke-linejoin:miter;stroke-opacity:1"
       d="m 21269,-38622.638 c -6.209,-31.593 -3.375,-64.701 -3.375,-96.875 0,-8.564 -1.264,-120.611 0,-121.875 13.492,-13.492 56.985,-6.25 75,-6.25 58.718,0 116.728,0.423 175,6.25 16.82,1.682 28.883,-6.721 34.375,12.5 9.591,33.569 4.669,82.868 -6.25,115.625 -6.369,19.108 -16.231,39.225 -18.75,59.375 -1.165,9.322 2.904,72.096 0,75 -2.605,2.605 -121.123,-1.437 -131.25,-3.125 -5.533,-0.922 -10.213,-4.774 -15.625,-6.25 -15.496,-4.226 -31.788,-2.897 -46.875,-6.25 -4.547,-1.011 -7.981,-5.12 -12.5,-6.25 -18.564,-4.641 -36.442,6.904 -49.75,-9.875"
       id="path6307"
       inkscape:connector-curvature="0" />
    <path
       style="fill:none;fill-rule:evenodd;stroke:#000000;stroke-width:1px;stroke-linecap:butt;stroke-linejoin:miter;stroke-opacity:1"
       d="m 21703,-38606.638 c -2.042,-6.375 -4.963,-12.533 -6.125,-19.125 -3.76,-21.33 0,-47.12 0,-68.75 0,-30.463 3.787,-63.457 0,-93.75 -1.318,-10.541 -5.193,-20.68 -6.25,-31.25 -1.53,-15.298 0,-31.455 0,-46.875 0,-1.042 -0.932,-2.659 0,-3.125 8.573,-4.287 131.546,0 150,0 17.403,0 78.146,-6.229 90.625,6.25 7.579,7.579 3.125,99.113 3.125,112.5 0,42.981 3.125,85.601 3.125,128.125 0,1.096 1.196,14.429 0,15.625 -3.793,3.793 -32.097,0 -37.5,0 -48.958,0 -97.917,0 -146.875,0 -17.065,0 -34.191,4.987 -50.125,0.375 z"
       id="path6309"
       inkscape:connector-curvature="0" />
    <path
       style="fill:none;fill-rule:evenodd;stroke:#000000;stroke-width:1px;stroke-linecap:butt;stroke-linejoin:miter;stroke-opacity:1"
       d="m 22078,-38610.638 c 0.231,-69.624 0.125,-139.25 0.125,-208.875 0,-4.95 -3.727,-36.898 0,-40.625 1.989,-1.989 106,-1.164 118.75,-3.125 7.495,-1.153 14.395,-5.003 21.875,-6.25 3.165,-0.528 91.856,-8.76 96.875,-6.25 0.111,0.06 0,39.101 0,53.125 0,68.75 0,137.5 0,206.25 0,17.384 6.665,25 -12.5,25 -25.772,0 -49.475,-4.123 -75,-6.25 -42.041,-3.504 -85.832,0 -128.125,0 -39.854,0 -7.524,-21.444 -34,-6"
       id="path6311"
       inkscape:connector-curvature="0" />
    <path
       style="fill:none;fill-rule:evenodd;stroke:#000000;stroke-width:1px;stroke-linecap:butt;stroke-linejoin:miter;stroke-opacity:1"
       d="m 22500,-38600.638 c 0.414,-66.881 -3.125,-133.238 -3.125,-200.125 0,-6.283 -4.029,-33.923 3.125,-37.5 7.769,-3.885 110.216,0 125,0 6.914,0 102.222,-2.685 106.25,0 10.78,7.186 8.392,86.241 9.375,100 1.354,18.96 4.375,37.499 6.25,56.25 1.325,13.246 -2.187,27.5 0,40.625 0.756,4.533 8.352,35.398 3.125,40.625 -1.473,1.473 -4.167,0 -6.25,0 -14.106,0 -26.401,3.125 -40.625,3.125 -54.167,0 -108.333,0 -162.5,0 -12.315,0 -29.296,-4.259 -40.625,-3 -11.676,1.297 -9.809,6.34 -19,6"
       id="path6313"
       inkscape:connector-curvature="0" />
    <path
       style="fill:none;fill-rule:evenodd;stroke:#000000;stroke-width:1px;stroke-linecap:butt;stroke-linejoin:miter;stroke-opacity:1"
       d="m 22866,-38669.638 c 0.249,-26.735 -6.625,-51.04 -6.625,-78 0,-11.551 -4.675,-84.401 0,-93.75 9.455,-18.91 81.376,-7.942 100,-9.375 23.645,-1.819 45.469,-9.913 68.75,-12.5 19.318,-2.147 39.848,0 59.375,0 1.287,0 8.548,-0.827 9.375,0 6.566,6.566 15.39,18.046 18.75,28.125 1.318,3.953 -1.145,8.494 0,12.5 1.541,5.394 4.89,10.183 6.25,15.625 2.302,9.207 0,21.709 0,31.25 0,41.936 -0.394,84.006 -6.25,125 -0.375,2.626 -1.841,36.216 -3.125,37.5 -27.698,27.698 -93.724,20.83 -131.25,25 -8.537,0.948 -16.476,5.184 -25,6.25 -10.07,1.259 -62.128,3.373 -71.875,-3.125 -17.54,-11.693 -0.67,-52.012 -6.25,-68.75 -1.663,-4.99 -9.072,-12.527 -12.125,-15.75 z"
       id="path6315"
       inkscape:connector-curvature="0" />
    <path
       style="fill:none;fill-rule:evenodd;stroke:#000000;stroke-width:1px;stroke-linecap:butt;stroke-linejoin:miter;stroke-opacity:1"
       d="m 23306,-38610.638 c -5.754,-47.144 -2.875,-95.661 -2.875,-143.25 0,-9.526 -7.114,-98.272 -6.25,-100 3.48,-6.96 36.128,-3.125 40.625,-3.125 32.974,0 67.197,-2.734 100,0 11.606,0.967 22.777,5.195 34.375,6.25 19.022,1.729 38.086,0.195 56.25,6.25 3.702,1.234 5.861,7.618 9.375,9.375 0.932,0.466 2.659,-0.932 3.125,0 5.06,10.12 0,35.997 0,46.875 0,40.625 0,81.25 0,121.875 0,1.585 1.929,24.036 0,25 -4.751,2.375 -10.367,2.374 -15.625,3.125 -18.687,2.669 -37.402,1.411 -56.25,3.125 -11.071,-1.487 -20.68,5.193 -31.25,6.25 -46.06,4.606 -94.97,-3.546 -140.5,0.25"
       id="path6317"
       inkscape:connector-curvature="0" />
    <path
       style="fill:none;fill-rule:evenodd;stroke:#000000;stroke-width:1px;stroke-linecap:butt;stroke-linejoin:miter;stroke-opacity:1"
       d="m 23644,-38635.638 c -0.5,-67.536 -0.25,-135.085 -0.25,-202.625 0,-6.014 -3.837,-47.679 3.125,-50 20.854,-6.951 110.136,6.25 137.5,6.25 12.371,0 117.13,1.505 121.875,6.25 10.002,10.002 2.261,57.183 3.125,71.875 3.234,54.983 1.27,110.839 6.25,165.625 0.284,3.125 4.952,45.962 3.125,46.875 -14.818,7.409 -65.326,-4.923 -81.25,-6.25 -27.128,-2.261 -53.897,-3.125 -81.25,-3.125 -15.821,0 -34.308,2.615 -50,0 -17.987,-2.998 -35.828,-14.535 -53.25,-15.875"
       id="path6319"
       inkscape:connector-curvature="0" />
  </g>
</svg>
